<svg width="800" height="800" xmlns="http://www.w3.org/2000/svg">

 <g>
  <title>Layer 1</title>
  <path stroke="null" id="svg_1" d="m104.5548,344.23062l-6.79175,0l0,-39.12514c0,-3.09015 0.18881,-6.87305 0.57046,-11.34669l-0.1626,0c-0.65243,2.63123 -1.23364,4.51529 -1.74968,5.65352l-19.92776,44.81831l-3.33608,0l-19.88744,-44.49242c-0.56979,-1.30151 -1.151,-3.29374 -1.74766,-5.97806l-0.16328,0c0.21703,2.3329 0.32521,6.14201 0.32521,11.42866l0,39.04182l-6.59018,0l0,-58.31983l9.02924,0l17.89453,40.66921c1.38281,3.11703 2.2778,5.44993 2.68431,6.99534l0.24122,0c1.16511,-3.19833 2.1031,-5.58499 2.8066,-7.1566l18.26409,-40.50795l8.54008,0l0.00067,58.31983zm17.85422,-52.21949c-1.194,0 -2.21061,-0.40584 -3.05118,-1.21953c-0.8399,-0.81302 -1.25918,-1.84509 -1.25918,-3.0915s0.41995,-2.28318 1.25918,-3.11098c0.84057,-0.82646 1.85718,-1.24103 3.05118,-1.24103c1.21953,0 2.25765,0.4139 3.11098,1.24103c0.85401,0.82646 1.28336,1.86457 1.28336,3.11098c0,1.194 -0.42936,2.20994 -1.28336,3.05051c-0.85334,0.83923 -1.89145,1.26052 -3.11098,1.26052zm3.25343,52.21949l-6.66812,0l0,-41.64551l6.66812,0l0,41.64551zm41.88874,-1.91094c-3.19968,1.92437 -6.99736,2.88723 -11.38767,2.88723c-5.93774,0 -10.73054,-1.93177 -14.37771,-5.7953c-3.64516,-3.8642 -5.46807,-8.87268 -5.46807,-15.02813c0,-6.85962 1.96603,-12.36868 5.89608,-16.53188c3.93139,-4.16119 9.17773,-6.24347 15.73969,-6.24347c3.66061,0 6.88515,0.67797 9.67966,2.03323l0,6.83274c-3.09082,-2.16962 -6.39801,-3.2541 -9.92356,-3.2541c-4.2566,0 -7.7452,1.52593 -10.47252,4.57576c-2.7253,3.05051 -4.08661,7.05716 -4.08661,12.01861c0,4.88014 1.28068,8.73024 3.84337,11.54893c2.56203,2.82004 5.99889,4.2304 10.30992,4.2304c3.63508,0 7.0491,-1.20677 10.24877,-3.6203l-0.00134,6.34627zm31.80392,-32.98381c-1.16511,-0.895 -2.84625,-1.34249 -5.04275,-1.34249c-2.84692,0 -5.22551,1.34249 -7.13779,4.02681c-1.91295,2.68431 -2.86708,6.34425 -2.86708,10.98049l0,21.22994l-6.67081,0l0,-41.64551l6.67081,0l0,8.58107l0.1626,0c0.95076,-2.92822 2.40009,-5.21274 4.35269,-6.8529s4.13431,-2.46057 6.54717,-2.46057c1.73624,0 3.06395,0.18881 3.98582,0.57046l-0.00067,6.9127zm23.54805,35.87104c-6.15545,0 -11.06717,-1.9452 -14.74189,-5.83628c-3.67338,-3.89108 -5.51108,-9.0494 -5.51108,-15.47428c0,-6.99534 1.91295,-12.45871 5.73482,-16.38944c3.82389,-3.93207 8.98825,-5.89676 15.49444,-5.89676c6.20987,0 11.05709,1.91094 14.53964,5.73415c3.48457,3.82322 5.22551,9.12465 5.22551,15.90229c0,6.64259 -1.87734,11.96284 -5.63336,15.96142s-8.79071,5.99889 -15.10809,5.99889zm0.48848,-37.98624c-4.28482,0 -7.67129,1.45739 -10.16747,4.37285c-2.49618,2.91411 -3.74326,6.93353 -3.74326,12.05758c0,4.93591 1.26119,8.82632 3.78357,11.67257c2.51969,2.84759 5.89676,4.27071 10.12648,4.27071c4.31103,0 7.62695,-1.39692 9.94507,-4.18941c2.31812,-2.79182 3.47651,-6.76353 3.47651,-11.91513c0,-5.20602 -1.15906,-9.21805 -3.47651,-12.03742c-2.31946,-2.82139 -5.63336,-4.23174 -9.94439,-4.23174zm28.38721,35.50552l0,-7.15795c3.63239,2.68431 7.63031,4.02681 11.99643,4.02681c5.85644,0 8.78668,-1.95327 8.78668,-5.85644c0,-1.11203 -0.2513,-2.05473 -0.75188,-2.82676c-0.50394,-0.77203 -1.17989,-1.45739 -2.0339,-2.05473c-0.85468,-0.59666 -1.85853,-1.13151 -3.00885,-1.60656a198.77969,198.77969 0 0 0 -3.72176,-1.48427c-1.84576,-0.73105 -3.46441,-1.47016 -4.85931,-2.21599c-1.39759,-0.74583 -2.56203,-1.5864 -3.49734,-2.52104c-0.93598,-0.93665 -1.64082,-1.99963 -2.11453,-3.19228c-0.47437,-1.19266 -0.71156,-2.58957 -0.71156,-4.18941c0,-1.95192 0.44817,-3.67943 1.34249,-5.18519c0.895,-1.50443 2.08698,-2.76562 3.57864,-3.78156c1.49166,-1.01796 3.19228,-1.78327 5.10524,-2.29863a22.61476,22.61476 0 0 1 5.91557,-0.77203c3.60619,0 6.83207,0.62421 9.681,1.87062l0,6.75076c-3.06462,-2.00635 -6.58883,-3.00952 -10.576,-3.00952c-1.24641,0 -2.3712,0.14245 -3.37437,0.42734c-1.00452,0.28422 -1.86457,0.68468 -2.58353,1.20005c-0.71895,0.51536 -1.27396,1.13218 -1.66636,1.84979c-0.39173,0.71828 -0.58994,1.51182 -0.58994,2.37926c0,1.0838 0.19687,1.99291 0.58994,2.72463c0.3924,0.73172 0.96823,1.38281 1.72817,1.95192c0.75994,0.57046 1.68114,1.08515 2.76562,1.54608s2.31879,0.96286 3.70227,1.50443c1.84307,0.70619 3.49532,1.43119 4.96145,2.17634c1.46411,0.74583 2.70985,1.58573 3.74057,2.52104c1.02871,0.93531 1.82426,2.01307 2.37994,3.23394c0.55568,1.21886 0.83385,2.6702 0.83385,4.35134c0,2.06145 -0.45422,3.85076 -1.36131,5.36863c-0.90978,1.51921 -2.12125,2.78107 -3.63978,3.7829c-1.51988,1.0025 -3.26754,1.749 -5.24768,2.23614c-1.97947,0.48983 -4.05234,0.73172 -6.22129,0.73172c-4.28886,-0.00067 -8.00322,-0.82848 -11.14847,-2.48139zm55.27067,2.48072c-6.15545,0 -11.06918,-1.9452 -14.74323,-5.83628c-3.67607,-3.89108 -5.51108,-9.0494 -5.51108,-15.47428c0,-6.99534 1.91228,-12.45871 5.73482,-16.38944c3.82187,-3.93207 8.98825,-5.89676 15.49646,-5.89676c6.20785,0 11.05507,1.91094 14.53897,5.73415c3.48255,3.82322 5.22551,9.12465 5.22551,15.90229c0,6.64259 -1.87868,11.96284 -5.63269,15.96142c-3.7567,3.99859 -8.7934,5.99889 -15.10876,5.99889zm0.48781,-37.98624c-4.28482,0 -7.67398,1.45739 -10.16814,4.37285c-2.49551,2.91478 -3.74326,6.93353 -3.74326,12.05758c0,4.93591 1.26119,8.82632 3.78492,11.67257c2.52037,2.84759 5.89676,4.27071 10.12648,4.27071c4.31036,0 7.6256,-1.39692 9.94305,-4.18941c2.31812,-2.79182 3.47919,-6.76353 3.47919,-11.91513c0,-5.20602 -1.16108,-9.21805 -3.47919,-12.03742c-2.31812,-2.82139 -5.63404,-4.23174 -9.94305,-4.23174zm49.98133,-18.78886c-1.30151,-0.73172 -2.77973,-1.09859 -4.43063,-1.09859c-4.6658,0 -6.99736,2.94233 -6.99736,8.82565l0,6.42556l9.76096,0l0,5.69317l-9.76096,0l0,35.95301l-6.62982,0l0,-35.95301l-7.11562,0l0,-5.69317l7.11562,0l0,-6.75076c0,-4.36545 1.26119,-7.81441 3.78424,-10.35023c2.52037,-2.5338 5.66562,-3.80306 9.43441,-3.80306c2.03255,0 3.64516,0.24323 4.83781,0.73105l0.00134,6.02039zm26.31165,55.39229c-1.57229,0.86812 -3.64449,1.30151 -6.21995,1.30151c-7.29502,0 -10.94085,-4.06712 -10.94085,-12.20002l0,-24.64798l-7.15593,0l0,-5.69317l7.15593,0l0,-10.16814l6.66879,-2.15484l0,12.32231l10.49201,0l0,5.69249l-10.49201,0l0,23.4681c0,2.79249 0.47437,4.78608 1.42312,5.97873c0.95076,1.194 2.52104,1.78865 4.71888,1.78865c1.68114,0 3.13181,-0.46161 4.34933,-1.38348l0.00067,5.69585zm-338.83034,174.51268l0,-159.2823l43.98445,0c56.1314,0 84.19743,25.88096 84.19743,77.64287c0,24.5855 -7.79493,44.33721 -23.38209,59.2585c-15.58918,14.92264 -36.45225,22.38093 -62.59122,22.38093l-42.20857,0zm18.66052,-142.39834l0,125.51504l23.76979,0c20.88054,0 37.13626,-5.59036 48.76045,-16.77176s17.44099,-27.03061 17.44099,-47.54092c0,-40.80225 -21.69893,-61.20236 -65.09076,-61.20236l-24.88047,0zm147.73068,-0.22173c-3.26082,0 -6.03584,-1.11068 -8.33179,-3.33272c-2.29527,-2.22069 -3.44358,-5.03536 -3.44358,-8.44198c0,-3.40394 1.14696,-6.23675 3.44358,-8.49708c2.29595,-2.25697 5.07164,-3.38781 8.33179,-3.38781c3.33204,0 6.16418,1.13017 8.49708,3.38781c2.33223,2.26033 3.49935,5.09314 3.49935,8.49708c0,3.25948 -1.16578,6.03652 -3.49935,8.33045c-2.33223,2.29662 -5.16437,3.44425 -8.49708,3.44425zm8.88679,142.62007l-18.21638,0l0,-113.74168l18.21638,0l0,113.74168zm96.1905,-95.30223c-3.18355,-2.44511 -7.77477,-3.66532 -13.77366,-3.66532c-7.77477,0 -14.27356,3.66532 -19.4937,10.9946c-5.22148,7.33197 -7.83121,17.32811 -7.83121,29.99108l0,57.97917l-18.21571,0l0,-113.74168l18.21571,0l0,23.43988l0.44414,0c2.59293,-7.99717 6.55322,-14.23661 11.88624,-18.71629c5.32966,-4.47901 11.28957,-6.72053 17.88311,-6.72053c4.7377,0 8.36673,0.51939 10.88306,1.55482l0,18.88427l0.00202,0zm108.18626,42.98733l-80.30635,0c0.2943,12.66298 3.70429,22.43737 10.21854,29.32319c6.51492,6.88716 15.4763,10.3294 26.88211,10.3294c12.81013,0 24.58281,-4.22032 35.32141,-12.66432l0,17.10637c-9.99613,7.25874 -23.21411,10.88575 -39.65528,10.88575c-16.06759,0 -28.69629,-5.16571 -37.87739,-15.49646c-9.18177,-10.32806 -13.77298,-24.86233 -13.77298,-43.60012c0,-17.69699 5.01789,-32.11569 15.05232,-43.26281c10.03309,-11.14444 22.49113,-16.718 37.37546,-16.718s26.39968,4.81497 34.54467,14.43953c8.14567,9.62859 12.21951,22.99372 12.21951,40.10009l-0.00202,9.55737zm-18.65985,-15.44136c-0.07324,-10.51216 -2.60973,-18.6968 -7.6088,-24.54585c-4.99571,-5.85039 -11.94066,-8.77727 -20.82544,-8.77727c-8.59115,0 -15.88214,3.07336 -21.88102,9.22074s-9.70183,14.18084 -11.10748,24.10239l61.42275,0zm123.7405,62.53747c-8.73763,5.25575 -19.10667,7.88429 -31.10109,7.88429c-16.2181,0 -29.30841,-5.2759 -39.26624,-15.82704c-9.95918,-10.55248 -14.94078,-24.23207 -14.94078,-41.04347c0,-18.73241 5.36728,-33.78473 16.10656,-45.1509c10.7339,-11.36617 25.06323,-17.05127 42.98598,-17.05127c9.99747,0 18.80969,1.85315 26.4373,5.55408l0,18.65985c-8.44198,-5.92229 -17.47794,-8.88612 -27.1025,-8.88612c-11.62621,0 -21.16006,4.16522 -28.60357,12.49634c-7.44217,8.33179 -11.16258,19.27197 -11.16258,32.82322c0,13.32817 3.49734,23.8437 10.49738,31.5459c6.99736,7.70355 16.38339,11.54961 28.15607,11.54961c9.92424,0 19.2545,-3.29374 27.99078,-9.88459l0,17.32945l0.00269,0l0,0.00067zm80.30769,4.10878c-4.29557,2.36851 -9.95918,3.55512 -16.99483,3.55512c-19.91969,0 -29.87954,-11.10748 -29.87954,-33.32447l0,-67.31145l-19.5488,0l0,-15.55021l19.5488,0l0,-27.76905l18.21638,-5.88668l0,33.6564l28.65732,0l0,15.55021l-28.65732,0l0,64.09229c0,7.62762 1.29411,13.07083 3.88839,16.32695c2.59159,3.26149 6.88448,4.88686 12.88471,4.88686c4.59189,0 8.55352,-1.25716 11.88489,-3.77685l0,15.55088zm136.73406,1.11001l-22.77064,0l-36.65517,-60.98063c-1.11001,-1.84912 -2.33357,-4.47901 -3.66532,-7.88698l-0.44481,0c-0.74045,1.70466 -2.0003,4.3332 -3.77685,7.88698l-37.76518,60.98063l-22.88353,0l53.31673,-80.08462l-49.09439,-79.19768l22.88218,0l32.54639,55.98021c2.14544,3.70765 4.03554,7.4079 5.66427,11.10748l0.44481,0c2.36851,-4.88552 4.44205,-8.73494 6.21793,-11.55095l33.88216,-55.53675l21.43823,0l-50.09622,78.97528l50.75941,80.30702zm-347.97246,-205.50089c-3.08276,0 -5.71131,-1.08784 -7.88899,-3.26418c-2.175,-2.17433 -3.26216,-4.80422 -3.26216,-7.88631c0,-3.08276 1.08716,-5.71131 3.26216,-7.88832c2.17702,-2.175 4.80489,-3.26284 7.88899,-3.26284c3.07336,0 5.69585,1.08784 7.87287,3.26284c2.17567,2.17702 3.26485,4.80489 3.26485,7.88832c0,3.08209 -1.08918,5.71198 -3.26485,7.88631c-2.17634,2.17634 -4.79884,3.26418 -7.87287,3.26418zm0,-20.99409c-2.71589,0 -5.03536,0.96286 -6.95906,2.88455c-1.92101,1.92303 -2.88455,4.24249 -2.88455,6.95906s0.96219,5.03334 2.88455,6.95032c1.92303,1.91766 4.24249,2.87648 6.95906,2.87648c2.71589,0 5.03133,-0.96017 6.95167,-2.87648c1.91766,-1.91698 2.87783,-4.2351 2.87783,-6.95032s-0.95883,-5.03536 -2.87783,-6.95906c-1.91833,-1.9237 -4.23577,-2.88455 -6.95167,-2.88455zm5.4123,16.81678l-2.40883,0l-1.54608,-3.40595c-0.78279,-1.70399 -1.6247,-2.55665 -2.52776,-2.55665l-1.30823,0l0,5.9626l-1.97746,0l0,-14.18487l3.98649,0c1.65494,0 2.92822,0.34805 3.82658,1.04013c0.89634,0.69476 1.34585,1.63612 1.34585,2.82542c0,0.97159 -0.3158,1.79873 -0.94472,2.48274c-0.63026,0.68334 -1.5098,1.14428 -2.6393,1.38281l0,0.05846c0.78346,0.16865 1.56154,1.04147 2.33492,2.61779l1.85853,3.77753zm-7.79022,-12.48962l0,4.84722l2.12729,0c1.95192,0 2.92822,-0.81235 2.92822,-2.43839c0,-0.87282 -0.26339,-1.49233 -0.78682,-1.8592c-0.52678,-0.3662 -1.35929,-0.54963 -2.49886,-0.54963l-1.76983,0zm362.4355,86.4329c-3.08142,0 -5.71265,-1.08716 -7.88832,-3.26351c-2.17567,-2.175 -3.26485,-4.80422 -3.26485,-7.88765c0,-3.08209 1.08918,-5.71131 3.26485,-7.88698c2.17567,-2.175 4.80556,-3.26284 7.88832,-3.26284c3.0747,0 5.6972,1.08784 7.87287,3.26284c2.17702,2.17567 3.26485,4.80489 3.26485,7.88698c0,3.08276 -1.08784,5.71198 -3.26485,7.88765c-2.17702,2.17634 -4.80086,3.26351 -7.87287,3.26351zm0,-20.99342c-2.71522,0 -5.03536,0.96152 -6.95772,2.88455c-1.9237,1.92236 -2.88723,4.24249 -2.88723,6.95839c0,2.71657 0.96219,5.03267 2.88723,6.95167c1.92236,1.91698 4.24182,2.87648 6.95772,2.87648c2.71791,0 5.03267,-0.96017 6.95301,-2.87648c1.91833,-1.919 2.87648,-4.23577 2.87648,-6.95167c0,-2.71522 -0.95816,-5.03536 -2.87648,-6.95839c-1.92034,-1.92437 -4.23779,-2.88455 -6.95301,-2.88455zm5.41096,16.81543l-2.40681,0l-1.54743,-3.40461c-0.78346,-1.70466 -1.6247,-2.55732 -2.52641,-2.55732l-1.30957,0l0,5.9626l-1.97611,0l0,-14.18554l3.98448,0c1.65628,0 2.93024,0.34738 3.82792,1.0408c0.89634,0.69476 1.34518,1.63612 1.34518,2.82542c0,0.97159 -0.31647,1.79873 -0.94472,2.48207c-0.63026,0.68401 -1.50913,1.14495 -2.6393,1.38281l0,0.05913c0.78346,0.16798 1.56154,1.04147 2.33357,2.61779l1.8592,3.77685zm-7.79022,-12.48895l0,4.84588l2.12729,0c1.9526,0 2.92755,-0.81168 2.92755,-2.43839c0,-0.87282 -0.26272,-1.493 -0.78749,-1.8592c-0.52611,-0.3662 -1.35929,-0.54829 -2.49752,-0.54829l-1.76983,0z"/>
 </g>
</svg>