<svg width="947" height="947" xmlns="http://www.w3.org/2000/svg">

 <g>
  <title>Layer 1</title>
  <g stroke="null" id="svg_1">
   <path stroke="null" id="svg_2" d="m744.95941,540.07789c0,-155.6229 -126.33651,-281.9594 -281.9594,-281.9594s-281.9594,126.33651 -281.9594,281.9594c0,155.6229 126.33651,281.9594 281.9594,281.9594s281.9594,-126.33651 281.9594,-281.9594" fill="#000080"/>
   <path stroke="null" id="svg_3" d="m662.39671,423.24389c0,-45.56526 -36.99744,-82.5627 -82.5627,-82.5627s-82.5627,36.99744 -82.5627,82.5627c0,45.56526 36.99744,82.5627 82.5627,82.5627s82.5627,-36.99744 82.5627,-82.5627" fill="#FFFFFF"/>
   <path stroke="null" id="svg_4" d="m827.52211,258.0406c0,-45.56526 -36.99744,-82.5627 -82.5627,-82.5627s-82.5627,36.99744 -82.5627,82.5627c0,45.56526 36.99744,82.5627 82.5627,82.5627s82.5627,-36.91955 82.5627,-82.5627" fill="#000080"/>
   <g stroke="null" id="svg_5">
    <path stroke="null" id="svg_6" d="m295.22637,660.18325l91.36419,0l0,20.79645l-114.96466,0l0,-184.98718l23.60047,0l0,164.19072z" fill="#FFFFFF"/>
    <path stroke="null" id="svg_7" d="m495.71353,680.97971l0,-18.53766c-12.46229,17.5251 -24.8467,24.37936 -44.39692,24.37936c-25.85926,0 -42.3718,-14.17586 -42.3718,-36.29643l0,-102.50237l21.03012,0l0,94.16821c0,15.96731 10.67084,26.17082 27.41705,26.17082c22.04268,0 36.29643,-17.75877 36.29643,-44.94215l0,-75.39688l21.03012,0l0,132.9571l-19.005,0z" fill="#FFFFFF"/>
    <path stroke="null" id="svg_8" d="m669.32886,684.56262c-6.85426,1.79145 -10.12561,2.25879 -14.48742,2.25879c-13.70852,0 -20.32912,-6.07537 -21.80901,-19.55022c-14.95475,13.70852 -28.42961,19.55022 -45.17582,19.55022c-26.87182,0 -43.61803,-15.18842 -43.61803,-39.33412c0,-17.29143 7.86682,-29.2085 23.3668,-35.51754c8.10049,-3.27135 12.69596,-4.28391 42.60547,-8.10049c16.74621,-2.02512 22.04268,-5.8417 22.04268,-14.72108l0,-5.60803c0,-12.69596 -10.67084,-19.78389 -29.67584,-19.78389c-19.78389,0 -29.44217,7.3216 -31.23362,23.60047l-21.34168,0c0.54523,-13.1633 3.03768,-20.79645 9.11305,-27.65071c8.87938,-9.89195 24.8467,-15.49998 44.16325,-15.49998c32.71352,0 50.00495,12.69596 50.00495,36.29643l0,78.2009c0,6.62059 4.05025,10.43717 11.44973,10.43717c1.24623,0 2.25879,0 4.59547,-0.54523l0,15.96731zm-37.07532,-69.32151c-7.08793,3.27135 -11.6834,4.28391 -34.03764,7.3216c-22.58791,3.27135 -32.01252,10.43717 -32.01252,24.37936c0,13.47486 9.65828,21.34168 26.17082,21.34168c12.46229,0 22.82158,-4.05025 31.46729,-11.91707c6.30904,-5.8417 8.41205,-10.12561 8.41205,-17.29143l0,-23.83414z" fill="#FFFFFF"/>
   </g>
   <path stroke="#808080" id="svg_9" d="m787.87643,374.48516c26.09293,51.25118 39.72356,107.95462 39.72356,165.51484c0,201.26605 -163.33394,364.59999 -364.59999,364.59999s-364.59999,-163.33394 -364.59999,-364.59999c0,-201.26605 163.33394,-364.59999 364.59999,-364.59999c64.72604,0 128.20585,17.21354 183.97462,49.77129" stroke-dasharray="40.8475" stroke-miterlimit="10" stroke-width="10.8612" fill="none"/>
  </g>
 </g>
</svg>