<svg width="800" height="800" xmlns="http://www.w3.org/2000/svg">
 <metadata id="metadata8">image/svg+xml</metadata>

 <g>
  <title>Layer 1</title>
  <g transform="matrix(0.67908916685118,0,0,-0.67908916685118,545.9435000530887,648.5582570514036) " id="g10">
   <g transform="translate(16.799999237060547,-309.6000061035156) scale(0.10000000149011612) " id="g12">
    <path d="m-6062.69067,6122.34716c25.13,-91.65 64.58,-174.12 118.42,-247.41c53.79,-73.32 122.84,-132.22 207.18,-176.77c84.27,-44.52 184.7,-66.72 301.35,-66.72c116.59,0 217.02,22.2 301.36,66.72c84.27,44.55 153.32,103.45 207.17,176.77c53.78,73.29 93.23,155.76 118.36,247.41c25.11,91.66 37.68,184.61 37.68,278.86c0,94.25 -12.57,187.13 -37.68,278.79c-25.13,91.66 -64.58,174.12 -118.36,247.47c-53.85,73.27 -122.9,132.17 -207.17,176.71c-84.34,44.53 -184.77,66.8 -301.36,66.8c-116.65,0 -217.08,-22.27 -301.35,-66.8c-84.34,-44.54 -153.39,-103.44 -207.18,-176.71c-53.84,-73.35 -93.29,-155.81 -118.42,-247.47c-25.12,-91.66 -37.62,-184.54 -37.62,-278.79c0,-94.25 12.5,-187.2 37.62,-278.86zm-234.38,647.03c38.51,117.69 96.33,221.92 173.34,312.59c77.01,90.67 172.9,163.09 287.53,217.11c114.64,54.04 248.14,81.12 400.46,81.12c152.25,0 285.76,-27.08 400.4,-81.12c114.63,-54.02 210.52,-126.44 287.53,-217.11c77.01,-90.67 134.83,-194.9 173.33,-312.59c38.51,-117.69 57.82,-240.19 57.82,-367.5c0,-127.3 -19.31,-249.86 -57.82,-367.53c-38.5,-117.69 -96.32,-221.93 -173.33,-312.61c-77.01,-90.67 -172.9,-162.64 -287.53,-215.81c-114.64,-53.12 -248.15,-79.76 -400.4,-79.76c-152.32,0 -285.82,26.64 -400.46,79.76c-114.63,53.17 -210.52,125.14 -287.53,215.81c-77.01,90.68 -134.83,194.92 -173.34,312.61c-38.5,117.67 -57.76,240.23 -57.76,367.53c0,127.31 19.26,249.81 57.76,367.5" id="path14" fill-rule="nonzero" fill="#5586a4"/>
    <path d="m-3421.09067,6234.36716c-14.9,52.92 -37.55,100.1 -68.11,141.56c-30.56,41.44 -69.75,74.44 -117.54,98.98c-47.85,24.55 -103.83,36.83 -168.03,36.83c-67.42,0 -124.61,-13.08 -171.57,-39.16c-47.04,-26.1 -85.4,-60.21 -115.2,-102.39c-29.8,-42.19 -51.33,-90.18 -64.64,-143.91c-13.32,-53.71 -19.95,-108.18 -19.95,-163.38c0,-58.35 7,-114.74 21.15,-169.19c14.07,-54.54 36.41,-102.45 66.98,-143.91c30.54,-41.44 70.06,-74.81 118.66,-100.11c48.61,-25.33 107.38,-37.98 176.31,-37.98c68.93,0 126.5,13.01 172.7,39.1c46.21,26.09 83.46,60.63 111.67,103.62c28.16,42.93 48.54,92.03 61.1,147.29c12.5,55.27 18.81,112.02 18.81,170.36c0,55.22 -7.44,109.3 -22.34,162.29zm-716.96,423.36l0,-161.35l4.03,0c32.96,66.06 84.78,114.11 155.48,144.09c70.7,29.97 148.4,44.96 233.25,44.96c94.18,0 176.24,-16.89 246.18,-50.7c69.88,-33.8 127.95,-79.45 174.28,-136.99c46.34,-57.6 81.24,-123.98 104.85,-199.18c23.55,-75.23 35.35,-155.05 35.35,-239.49c0,-84.44 -11.42,-164.26 -34.15,-239.51c-22.79,-75.23 -57.31,-140.87 -103.65,-196.87c-46.33,-56.01 -104.47,-100.17 -174.34,-132.37c-69.95,-32.2 -151.19,-48.35 -243.85,-48.35c-29.86,0 -63.25,3.07 -100.12,9.19c-36.92,6.21 -73.41,16.14 -109.52,29.96c-36.1,13.82 -70.32,32.71 -102.51,56.51c-32.19,23.81 -59.27,53.35 -81.25,88.76l-4.03,0l0,-614.708l-202.01,0l0,1646.048l202.01,0" id="path16" fill-rule="nonzero" fill="#5586a4"/>
    <path d="m-2203.30067,6307.20716c-18.02,41.33 -42.34,76.98 -72.89,106.83c-30.62,29.85 -66.72,53.6 -108.26,71.24c-41.6,17.64 -87.49,26.46 -137.68,26.46c-51.76,0 -98.47,-8.82 -140.01,-26.46c-41.59,-17.64 -77.26,-41.76 -107.05,-72.35c-29.8,-30.65 -53.34,-66.31 -70.58,-106.89c-17.29,-40.59 -27.46,-83.88 -30.61,-129.84l698.92,0c-3.17,45.96 -13.77,89.63 -31.84,131.01zm48.95,-764.03c-91.29,-67.48 -206.11,-101.21 -344.61,-101.21c-97.59,0 -182.24,15.34 -253.82,46c-71.65,30.71 -131.86,73.71 -180.66,128.98c-48.79,55.27 -85.4,121.25 -109.77,198.04c-24.37,76.75 -38.13,160.45 -41.29,250.99c0,90.54 14.14,173.43 42.55,248.7c28.34,75.24 68.11,140.5 119.3,195.76c51.19,55.27 111.85,98.2 181.93,128.92c70.06,30.71 146.89,46.07 230.4,46.07c108.7,0 198.84,-21.95 270.54,-65.75c71.72,-43.85 129.22,-99.61 172.52,-167.28c43.31,-67.72 73.29,-141.55 89.83,-221.48c16.54,-80 23.23,-156.12 20.08,-228.41l-913.03,0c-1.58,-52.12 4.67,-101.53 18.81,-148.28c14.14,-46.75 36.87,-88.14 68.3,-124.17c31.44,-36.01 71.46,-64.69 120.19,-86.15c48.66,-21.48 105.98,-32.2 171.95,-32.2c84.77,0 154.28,19.17 208.44,57.61c54.16,38.42 89.88,96.82 107.18,175.29l198.21,0c-26.77,-133.48 -85.78,-233.95 -177.05,-301.43" id="path18" fill-rule="nonzero" fill="#5586a4"/>
    <path d="m-1633.59067,6657.72716l0,-189.05l3.79,0c83.69,144.46 216.44,216.75 398.18,216.75c80.55,0 147.7,-10.79 201.49,-32.31c53.71,-21.54 97.15,-51.51 130.35,-89.94c33.2,-38.42 56.5,-84.13 69.94,-137.17c13.38,-53.05 20.14,-111.84 20.14,-176.41l0,-783.95l-202,0l0,806.46c0,73.71 -22.11,132.06 -66.23,175.11c-44.18,43 -104.84,64.52 -182.05,64.52c-61.46,0 -114.68,-9.25 -159.63,-27.69c-44.94,-18.45 -82.38,-44.53 -112.3,-78.34c-29.9,-33.8 -52.38,-73.34 -67.34,-118.61c-15.02,-45.33 -22.48,-94.86 -22.48,-148.65l0,-672.8l-202,0l0,1192.08l190.14,0" id="path20" fill-rule="nonzero" fill="#5586a4"/>
    <path d="m586.65933,5478.59716c-91.21,-37.56 -183.32,-56.38 -276.23,-56.38c-146.7,0 -278.57,25 -395.72,74.83c-117.17,49.89 -215.94,118.6 -296.43,206.19c-80.48,87.52 -142.16,190.4 -185.09,308.59c-42.91,118.17 -64.38,245.6 -64.38,382.16c0,140.01 21.41,270.04 64.2,390c42.81,119.92 104.34,224.52 184.63,313.83c80.31,89.32 178.97,159.32 296.05,210.15c117.09,50.76 248.97,76.17 395.67,76.17c98.34,0 193.53,-14.49 285.62,-43.43c92.11,-28.98 175.26,-71.53 249.5,-127.67c74.21,-56.13 135.45,-125.33 183.73,-207.55c48.3,-82.28 77.85,-176.65 88.57,-283.23l-402.34,0c-25.06,104.79 -73.36,183.43 -144.89,235.86c-71.58,52.43 -158.3,78.64 -260.19,78.64c-94.81,0 -175.29,-17.94 -241.45,-53.84c-66.15,-35.9 -119.82,-84.08 -160.97,-144.46c-41.16,-60.45 -71.08,-129.15 -89.81,-206.19c-18.83,-77.05 -28.16,-156.67 -28.16,-238.96c0,-78.83 9.39,-155.43 28.2,-229.82c18.83,-74.38 48.81,-141.36 89.96,-200.89c41.15,-59.51 94.89,-107.19 161.15,-143.09c66.24,-35.9 146.82,-53.85 241.78,-53.85c139.63,0 247.44,34.41 323.56,103.26c76.13,68.82 120.45,168.63 133,299.38l-423.8,0l0,307.91l803.57,0l0,-1011.99l-267.38,0l-42.82,212.3c-75.11,-94.36 -158.32,-160.36 -249.53,-197.92" id="path22" fill-rule="nonzero" fill="#5586a4"/>
    <path d="m1829.31933,7336.76716l0,-1523.74l933.51,0l0,-347.38l-1353.67,0l0,1871.12l420.16,0" id="path24" fill-rule="nonzero" fill="#5586a4"/>
    <path d="m-157.69067,5233.05716c-642.85,-382.05 -1605.69,-599.511 -2679.96,-599.511c-1935.48,0 -3504.5,787.501 -3504.5,1758.961c0,971.46 1569.02,1758.98 3504.5,1758.98c1078.22,0 2044.96,-221.49 2687.83,-605.93c-701.7,644.13 -1959.84,1096.74 -3398.37,1096.95c-2203.18,0.35 -3989.38859,-1006.75 -3989.58,-2249.38c-0.1875,-1242.61 1785.68,-2250.31922 3988.87,-2250.62c1432.81,-0.23828 2687.69,450.922 3391.21,1090.55" id="path26" fill-rule="nonzero" fill="#5586a4"/>
    <path d="m3112.52933,5652.49716l20.3,0c13.4,0 22.9,2.18 28.5,6.54c5.5,4.38 8.2,10 8.2,16.9c0,6.89 -2.6,12.53 -7.9,16.89c-5.3,4.37 -14.3,6.55 -27,6.55l-22.1,0l0,-46.88zm-46.6,79.51l83.9,0c23.7,0 40.9,-4.78 51.6,-14.36c10.6,-9.57 15.9,-22.41 15.9,-38.5c0,-12.56 -4,-23.44 -12.1,-32.64c-8.2,-9.19 -21,-15.86 -38.4,-19.99c7.2,-2.76 12.5,-5.67 15.8,-8.73c4.8,-4.29 9.8,-10.65 15,-19.08c0.3,-0.61 10.4,-18.7 30.3,-54.24l-55.2,0c-17.9,35.7 -29.9,57.04 -36,64.02c-6.2,6.96 -12.3,10.46 -18.4,10.46c-1.4,0 -3.3,-0.24 -5.8,-0.7l0,-73.78l-46.6,0l0,187.54zm221.1,-93.77c0,39.07 -13.9,72.44 -41.5,100.1c-27.7,27.66 -61,41.48 -100.1,41.48c-39.1,0 -72.4,-13.82 -100.1,-41.48c-27.7,-27.66 -41.5,-61.03 -41.5,-100.1c0,-39.07 13.8,-72.43 41.5,-100.09c27.7,-27.65 61,-41.48 100.1,-41.48c39.1,0 72.4,13.83 100.1,41.48c27.6,27.66 41.5,61.02 41.5,100.09zm34,0c0,-31.4 -7.9,-60.67 -23.6,-87.79c-15.7,-27.12 -37.1,-48.5 -64.2,-64.12c-27.1,-15.64 -56.4,-23.45 -87.8,-23.45c-31.3,0 -60.4,7.81 -87.6,23.45c-27.1,15.62 -48.5,37 -64.2,64.12c-15.7,27.12 -23.6,56.39 -23.6,87.79c0,31.26 7.9,60.48 23.6,87.69c15.7,27.2 37.1,48.6 64.2,64.24c27.2,15.62 56.3,23.43 87.6,23.43c31.4,0 60.7,-7.81 87.8,-23.43c27.1,-15.64 48.5,-37.04 64.2,-64.24c15.7,-27.21 23.6,-56.43 23.6,-87.69" id="path28" fill-rule="nonzero" fill="#000000"/>
   </g>
  </g>
 </g>
</svg>